PathFileType	4	(X/Y/Z)	Falisse_et_al_2022_v1.trc
DataRate	CameraRate	NumFrames	NumMarkers	Units	OrigDataRate	OrigDataStartFrame	OrigNumFrames
0	0	4	47	m	0	75	200
Frame#	Time	RASI			LASI			CLAV			RSHO			LSHO			RKNE			RKNE_med			RTHI1			RTHI2			RTHI3			RANK			RANK_med			RTIB1			RTIB2			RTIB3			LKNE			LKNE_med			LTHI1			LTHI2			LTHI3			LANK			LANK_med			LTIB1			LTIB2			LTIB3			RPSI			LPSI			RELB			LELB			RW1			RW2			LW1			LW2			hum_l2			hum_r2			rad_l2			rad_r2			LH			RH			Foot_r1			Foot_r4			Foot_r6			Foot_r7			foot_l1			foot_l4			foot_l6			foot_l7		
		X1	Y1	Z1	X2	Y2	Z2	X3	Y3	Z3	X4	Y4	Z4	X5	Y5	Z5	X6	Y6	Z6	X7	Y7	Z7	X8	Y8	Z8	X9	Y9	Z9	X10	Y10	Z10	X11	Y11	Z11	X12	Y12	Z12	X13	Y13	Z13	X14	Y14	Z14	X15	Y15	Z15	X16	Y16	Z16	X17	Y17	Z17	X18	Y18	Z18	X19	Y19	Z19	X20	Y20	Z20	X21	Y21	Z21	X22	Y22	Z22	X23	Y23	Z23	X24	Y24	Z24	X25	Y25	Z25	X26	Y26	Z26	X27	Y27	Z27	X28	Y28	Z28	X29	Y29	Z29	X30	Y30	Z30	X31	Y31	Z31	X32	Y32	Z32	X33	Y33	Z33	X34	Y34	Z34	X35	Y35	Z35	X36	Y36	Z36	X37	Y37	Z37	X38	Y38	Z38	X39	Y39	Z39	X40	Y40	Z40	X41	Y41	Z41	X42	Y42	Z42	X43	Y43	Z43	X44	Y44	Z44	X45	Y45	Z45	X46	Y46	Z46	X47	Y47	Z47
75	0.82699807	1.1045443528535468	0.9300845157353218	0.12161047441568275	1.1254156942469384	0.9355614839788992	-0.1338386035260051	1.1311165012848596	1.3605217494741886	-0.020547870274918376	1.0270538214213565	1.4019694937183242	0.158943491427377	1.0554235558199023	1.3929067890845854	-0.18413847312194892	1.1469846519372182	0.4685631891402459	0.1334697896525658	1.1197022548528024	0.434934366676951	0.02360801328506479	1.1014888906645193	0.7746672446770655	0.1890762565120026	1.0418255240106054	0.750896609160937	0.20362279026703362	1.0904938861303837	0.7189012172259728	0.19601272002832187	0.8236749985048966	0.19636354626834018	0.09050327829389318	0.8548600732040046	0.2014781911324302	0.0113599360354657	0.9923053354849662	0.3290551605056431	0.13405260637172006	0.9338582606161051	0.3731077890498633	0.1381724721990279	0.9382577649657708	0.31604758323609505	0.13236578632998644	1.0837237228565442	0.4584727826374343	-0.09885391096268652	1.0447056182208825	0.4600974234953003	-0.012397354562606377	1.1560868439535068	0.6806449119066282	-0.09197128405083661	1.130354126762275	0.6733126086263943	-0.15636584144683977	1.1451203274567667	0.6267212689116163	-0.11841104649287863	0.9964155948881445	0.07232109967244743	-0.09213490707894889	0.9704474590175822	0.09213008669750439	-0.012509669106293607	1.0558536594256083	0.2652422306160111	-0.09518375232594872	1.0041991107967758	0.267774022656314	-0.1376321345840682	1.0281573248706997	0.21919199346808949	-0.11329243366578425	0.9451259320301941	0.9796530050581465	0.007394696604184704	0.9504223598049184	0.9865541234871608	-0.040304034015648055	0.9662043209355283	1.0952971116138976	0.19846650902816737	0.9896699659005608	1.0665611301051277	-0.22954710414276658	1.205311723727228	0.9788625541020964	0.15774088838027317	1.155140409665849	0.9186867687524688	0.1672149903182018	1.0836389580705574	0.8446011602630102	-0.26708207712971804	1.0091765837951112	0.8555406085204862	-0.29772308193998676	1.0388700498009154	1.2317008476467721	-0.23418742628310002	1.004075131307804	1.2442071168276458	0.19422137797930292	1.038824543205727	0.9726821291135809	-0.27205846952304674	1.1117252717962045	0.9913472790056643	0.19260042789128515	1.0603125996223157	0.7928167774292251	-0.31389006598131397	1.2309977415409736	0.9214540569369023	0.17334039954693164	0.7887249232636732	0.2166181250594605	0.05019296884862899	0.8360555124348719	0.13350712792166822	0.09459165569964885	0.9311004558257521	0.07958479297715872	0.07737002771953819	0.9593269147261849	0.06103826072816555	0.03968526271798867	0.9252536029583199	0.05836847590953903	-0.06277127055753501	1.0316019671282977	0.03680889409300669	-0.08555999171572337	1.122395135913322	0.04130627616217707	-0.03510783110574976	1.1446049424531048	0.03733861164675335	0.00689339765768348
76	0.83802471	1.1183818889171586	0.9315458220557101	0.12125177996964179	1.1374200696266856	0.9362264686366882	-0.13435628077339218	1.1443646594967614	1.3613937004129884	-0.021701632881775394	1.0413444495859434	1.4032446966860737	0.15829680108343053	1.0678123442660088	1.3936264662290534	-0.18492200527517794	1.1725651152851428	0.47378787142766005	0.13370681928493416	1.1459704701053337	0.4392902148730416	0.02394583651982772	1.1180460209861705	0.7784154583466287	0.18930662064434817	1.0591701854925597	0.7528679423893061	0.2040484828383145	1.1087560827157843	0.7223477084547718	0.1963036869932917	0.8607697802333261	0.18874065439161042	0.09214904321596165	0.8914886250444634	0.19500155331772684	0.012905804904951731	1.0239063614634136	0.32835119901072257	0.13498770228294457	0.963703485768473	0.3699619515988235	0.13920990122753296	0.970436899655783	0.31312194852908193	0.13348141842071554	1.0861777366952035	0.4582567721077762	-0.09999550071508927	1.0472822064668463	0.4605113458302027	-0.013497854981683086	1.1638086769194556	0.6786208062062002	-0.0924207751176793	1.1378546078254668	0.6721237363173065	-0.15681618495399974	1.1515408490895545	0.6250643235261318	-0.11903446255842728	0.9970911134262324	0.07308330045628697	-0.09248087487912784	0.971432197951233	0.09314330642986263	-0.012818243823282172	1.0575573614554927	0.2656774752186589	-0.09595340057499516	1.0058094957983768	0.26842754292675275	-0.13827435340983985	1.029567985093898	0.2197515285547047	-0.1139266546747284	0.9581343625457026	0.9807123682653165	0.008026813825720146	0.963086734568211	0.9874651429413193	-0.03973007605431008	0.9814172000874305	1.0963821996773038	0.19859184661271667	1.005794228205111	1.0661154653358962	-0.22933874683370722	1.2162223808295904	0.9710210132829492	0.16186400442051688	1.1635701624861836	0.9132240959294401	0.17260200947592966	1.106388706028696	0.8454185164940908	-0.2632235204323097	1.0316937232252026	0.8537244362783188	-0.2941243153609408	1.0529225628739842	1.231841253919051	-0.23455317153181365	1.0187681367147896	1.2454102698355767	0.19390666715048738	1.0579177186705242	0.9720618876927375	-0.2702840273968328	1.123048027236444	0.9882507054544948	0.19579271462365339	1.0846393452327163	0.7922505958037142	-0.30923293945375696	1.2394441555696585	0.9130427537396137	0.17913022591741745	0.8245124637555044	0.2069836635297751	0.051456636558766033	0.876326290913684	0.12718754719120973	0.09691841218544253	0.9741324403562732	0.07825420264240386	0.08026822111114698	1.0031495609542174	0.060393324843867224	0.04276978448071632	0.9259716774219141	0.05988963564323414	-0.0631086035840754	1.032082966466545	0.03708290171686463	-0.08578817956464052	1.1228995062190839	0.04071312098419266	-0.035308242271065604	1.1449062405867099	0.03710971678963551	0.006730802285830659
77	0.84905135	1.1322789374349644	0.9328018384299903	0.12090205219727435	1.1494103379619547	0.936670308403404	-0.13485445612657612	1.1576197133279016	1.3620580349641238	-0.022848635202994197	1.055691177595948	1.404308189157275	0.15767727386060867	1.0801662619245378	1.3941380518228739	-0.18567349051578697	1.1974183181656368	0.47889953652018064	0.13379132570428492	1.1713875317715896	0.44361112819472065	0.024146612219660246	1.1345142550842282	0.7818884471158498	0.18949083351503768	1.076442357236129	0.7546919136602016	0.20446966277242656	1.126841942926344	0.725583559603898	0.19654418285512743	0.898636075678626	0.18067252797760397	0.09394103959216107	0.9287642060470542	0.1881286536627393	0.014574553905948653	1.0555536512858863	0.32748755020513476	0.1359174940495433	0.9935751903385158	0.3663888742005341	0.14027929491805458	1.0028093604116948	0.30989272576486027	0.134635214673412	1.0885105588539763	0.458061095735464	-0.10113847231845027	1.0497885459358611	0.4609427991296688	-0.014581614745211899	1.1714203779099777	0.6764695332082503	-0.09289449167158412	1.1452372930555166	0.6708253877845772	-0.1572775959583837	1.1578367142922117	0.6233175433137637	-0.11967946598357773	0.997725900389149	0.0738663800634955	-0.09280297173849456	0.9724141835188199	0.09416728108679523	-0.013090306643973197	1.0591897312926737	0.26613598691786466	-0.09671928487366857	1.0073288686281892	0.2691007460655775	-0.13888714761541415	1.030905697400202	0.22033343872462685	-0.11454554737595955	0.9711791976024625	0.9815684429428142	0.008718256385071461	0.9757737432419711	0.9881697736508263	-0.03909553941423159	0.996820702863381	1.0972308321438065	0.1987749196420036	1.0217610851203016	1.065542180734871	-0.22908611736100684	1.2267560219684428	0.9629676055553642	0.16626333009135927	1.1716458788113904	0.9077670875837652	0.17825580446058634	1.1294099888914746	0.8464110871372248	-0.259138928275191	1.0545149265510054	0.8518734493277453	-0.2901885679351668	1.066827746352335	1.2318208844741108	-0.2348909328875657	1.0336006161472304	1.2463859079431576	0.19363581361510165	1.0770555378464532	0.9713566529849633	-0.26838273016582115	1.1342347150268035	0.9850496481468114	0.19915209705936554	1.1093440518272315	0.7918140281209858	-0.3042304844778123	1.2474113557565047	0.9045546261194012	0.18524049600332737	0.8611399360963028	0.19675872577407477	0.052907903282943675	0.9173958486414153	0.12062591962642254	0.0993614719556139	1.0177637519526246	0.07700989668612401	0.08318524037616601	1.0475866749005451	0.05997076770532264	0.04586191264885989	0.9266745511754061	0.061424326983787934	-0.0633948849886187	1.0325261152985843	0.03737512795539162	-0.0860045807081305	1.1233772257304238	0.04014294810805335	-0.035532198570759094	1.1451990600892816	0.0369181105600293	0.006532566831678029
78	0.86007799	1.1462470691078317	0.9338375566273587	0.12056157643050597	1.1614040192280082	0.9368818177696154	-0.13533066813956973	1.1708957779521154	1.3625026975297954	-0.023987336315597785	1.070105944363175	1.4051478320858206	0.1570842178083387	1.0925018903199577	1.3944292125635869	-0.18639175172138825	1.2214587642105712	0.48377934632128217	0.13372141008133562	1.1958607723891372	0.44777861861596585	0.024206446642726767	1.150885522039185	0.7850355665038078	0.18962975970119922	1.0936160605846144	0.7563311376362354	0.20488186203812986	1.1447249215764261	0.7285515275619594	0.1967329150035227	0.9372676011068268	0.17222087207594028	0.09582844629009313	0.9666783959751654	0.1809120743893486	0.016318665461133322	1.087187079346883	0.32644165226453326	0.13681502967044284	1.0234448138806318	0.36235810992645473	0.1413537077891988	1.035335746510226	0.3063523113886668	0.1357952387412312	1.090774756792307	0.45788382584378734	-0.10226379295797777	1.052275347801361	0.4613877487250411	-0.015630623076997238	1.1789539422533335	0.6741933155218667	-0.09338219407333789	1.1525367920970462	0.6694163864379759	-0.15773986303214993	1.1640454605943287	0.6214823202043093	-0.12033350096510018	0.9983266030728862	0.07467201303632204	-0.09309820337844946	0.9733991278780656	0.09520361291288232	-0.013323564822870428	1.0607789347324275	0.26661297978187504	-0.09747007859541879	1.0087876074756303	0.26979629689362516	-0.13946098122393874	1.0321943115047814	0.22093672172361722	-0.115140234049005	0.9842758708328008	0.9822092792913479	0.009466935207300107	0.988499949736435	0.9886567661838113	-0.03840198535369552	1.0124119277911492	1.0978370049462247	0.19901370060651374	1.0375323303005386	1.064836398908049	-0.22878841023267127	1.2369013491430918	0.9547713050080104	0.17091768894397616	1.1793817106820117	0.9023835287088385	0.18414858424077163	1.1526680349217697	0.8476229894683815	-0.2548360564253001	1.0776223570578876	0.8500282057118408	-0.28590934166310755	1.0805733328114884	1.2316287103262014	-0.2351996589210823	1.0485805363553158	1.2471247071431966	0.1934080966324775	1.0962095751274483	0.9705766483617053	-0.26635434297441807	1.145291230419387	0.9817815594595141	0.20265902063893004	1.1344014575290826	0.79156157495852	-0.2988835203451837	1.254903676379625	0.8960747277180078	0.19164158421104388	0.8986280850915955	0.18602270017236136	0.05450422266801279	0.9592249195306819	0.11387732097508632	0.10185328630256832	1.061904771704098	0.07586980937252931	0.08604123520994325	1.0925291720611985	0.059789879718300784	0.04887469320950161	0.9273664621663743	0.06297948423466082	-0.06363074948530441	1.0329344076526128	0.03768292265145627	-0.08620526608348199	1.1238293704126892	0.03958353973740297	-0.03577174693942916	1.145482190384284	0.036749284328225384	0.006307565357920569
